<?xml version="1.0" ?>
<svg id="Layer_1" style="enable-background:new 0 0 32 32;" version="1.1" viewBox="0 0 32 32" xml:space="preserve" xmlns="http://www.w3.org/2000/svg" xmlns:xlink="http://www.w3.org/1999/xlink">
  <style type="text/css">
    .st0{fill:none;stroke:#79508a;stroke-width:1.5;stroke-linecap:round;stroke-linejoin:round;stroke-miterlimit:10;}
  </style>
  <g>
    <path class="st0" d="M31,13.9v14c0,1.1-0.9,2.1-2.1,2.1H3.1C1.9,30,1,29,1,27.9v-14l5.7,2.6l8.3,3.9c0.6,0.2,1.3,0.2,2,0l8.3-3.9   L31,13.9z"/>
    <polygon class="st0" points="6.7,9.6 6.7,16.5 1,13.9"/>
    <path class="st0" d="M21.4,6H10.6l3.8-3.5c1-0.6,2.2-0.6,3.2,0L21.4,6z"/>
    <polygon class="st0" points="31,13.9 25.3,16.5 25.3,9.6"/>
    <path class="st0" d="M25.3,7.1v9.4L17,20.4c-0.6,0.2-1.3,0.2-2,0l-8.3-3.9V7.1C6.7,6.5,7.2,6,7.8,6h16.4C24.8,6,25.3,6.5,25.3,7.1z"/>
    <line class="st0" x1="10.6" x2="21.4" y1="10.3" y2="10.3"/>
    <line class="st0" x1="10.6" x2="21.4" y1="14.6" y2="14.6"/>
  </g>
</svg>